<?xml version="1.0" encoding="UTF-8" standalone="no"?>
<svg
   width="400"
   height="400"
   viewBox="0 0 400 400"
   fill="none"
   version="1.1"
   id="svg17"
   sodipodi:docname="beta.svg"
   inkscape:version="1.3.2 (091e20ef0f, 2023-11-25, custom)"
   xmlns:inkscape="http://www.inkscape.org/namespaces/inkscape"
   xmlns:sodipodi="http://sodipodi.sourceforge.net/DTD/sodipodi-0.dtd"
   xmlns="http://www.w3.org/2000/svg"
   xmlns:svg="http://www.w3.org/2000/svg">
  <sodipodi:namedview
     id="namedview17"
     pagecolor="#ffffff"
     bordercolor="#000000"
     borderopacity="0.25"
     inkscape:showpageshadow="2"
     inkscape:pageopacity="0.0"
     inkscape:pagecheckerboard="0"
     inkscape:deskcolor="#d1d1d1"
     inkscape:zoom="1.1468161"
     inkscape:cx="174.39588"
     inkscape:cy="194.4514"
     inkscape:window-width="1440"
     inkscape:window-height="874"
     inkscape:window-x="0"
     inkscape:window-y="0"
     inkscape:window-maximized="1"
     inkscape:current-layer="g17" />
  <g
     clip-path="url(#clip0_2_48)"
     id="g17">
    <rect
       width="400"
       height="400"
       fill="white"
       id="rect1" />
    <path
       d="M120 195C124 169.5 146 106 155 89.0968"
       stroke="black"
       id="path1" />
    <path
       d="M174.5 379C160.5 359.167 109.2 249.3 120 194.5"
       stroke="black"
       id="path2" />
    <path
       d="M64.5 318.5C79.5 293.667 111.6 232.9 120 194.5"
       stroke="black"
       id="path3" />
    <path
       d="M155.5 89.0966C203 -11.4032 334 4.59683 325.5 102.597C314.282 231.939 182 171.597 155.5 89.0966Z"
       stroke="black"
       id="path4" />
    <circle
       cx="155.676"
       cy="89.2733"
       r="3.67647"
       fill="black"
       id="circle4" />
    <circle
       cx="64.6765"
       cy="319.676"
       r="3.67647"
       fill="black"
       id="circle5" />
    <circle
       cx="175.676"
       cy="379.676"
       r="3.67647"
       fill="black"
       id="circle6" />
    <circle
       cx="119.676"
       cy="195.676"
       r="3.67647"
       fill="black"
       id="circle11" />
    <path
       d="M124.164 153.554L134.662 142.092L136.375 157.287"
       stroke="black"
       id="path12" />
    <path
       d="M82.4707 272.387L94.2875 262.29L94.1353 277.581"
       stroke="black"
       id="path13" />
    <path
       d="M82.4707 272.387L94.2875 262.29L94.1353 277.581"
       stroke="black"
       id="path14" />
    <path
       d="M133.782 308.65L135.807 293.24L145.925 304.705"
       stroke="black"
       id="path15" />
    <path
       d="M332.625 81.6298L325.936 95.6603L319.856 81.6298"
       stroke="black"
       id="path16" />
    <path
       d="M332.625 81.6298L325.936 95.6603L319.856 81.6298"
       stroke="black"
       id="path17" />
    <text
       xml:space="preserve"
       id="text17"
       style="white-space:pre;shape-inside:url(#rect18);display:inline;fill:#000000"><tspan
         x="236.42578"
         y="55.675378"
         id="tspan7">$r$</tspan></text>
    <text
       xml:space="preserve"
       id="text18"
       style="white-space:pre;shape-inside:url(#rect19);display:inline;fill:#000000"
       transform="translate(19.788753,6.6732645)"><tspan
         x="75.023438"
         y="132.04842"
         id="tspan8">$s$</tspan></text>
    <text
       xml:space="preserve"
       id="text19"
       style="white-space:pre;shape-inside:url(#rect20);display:inline;fill:#000000"><tspan
         x="152.85156"
         y="285.63436"
         id="tspan9">$u$</tspan></text>
    <text
       xml:space="preserve"
       id="text20"
       style="white-space:pre;shape-inside:url(#rect21);display:inline;fill:#000000"
       transform="translate(6,6)"><tspan
         x="53.058594"
         y="244.50155"
         id="tspan10">$t$</tspan></text>
    <text
       xml:space="preserve"
       id="text21"
       style="white-space:pre;shape-inside:url(#rect22);display:inline;fill:#000000"><tspan
         x="40.199219"
         y="346.55038"
         id="tspan11">$a$</tspan></text>
    <text
       xml:space="preserve"
       id="text22"
       style="white-space:pre;shape-inside:url(#rect23);display:inline;fill:#000000"><tspan
         x="196.91797"
         y="369.43124"
         id="tspan12">$b$</tspan></text>
  </g>
  <defs
     id="defs17">
    <rect
       x="196.91747"
       y="358.7548"
       width="34.105975"
       height="33.012595"
       id="rect23" />
    <rect
       x="40.199612"
       y="335.87215"
       width="38.939329"
       height="37.47127"
       id="rect22" />
    <rect
       x="53.057902"
       y="233.82332"
       width="27.927184"
       height="37.31118"
       id="rect21" />
    <rect
       x="152.85186"
       y="274.95622"
       width="47.573969"
       height="42.856424"
       id="rect20" />
    <rect
       x="75.024289"
       y="121.37204"
       width="37.290743"
       height="35.999805"
       id="rect19" />
    <rect
       x="236.42563"
       y="44.998905"
       width="34.337595"
       height="30.02879"
       id="rect18" />
    <clipPath
       id="clip0_2_48">
      <rect
         width="400"
         height="400"
         fill="white"
         id="rect17" />
    </clipPath>
  </defs>
</svg>
