<?xml version="1.0" encoding="UTF-8" standalone="no"?>
<svg
   width="400"
   height="400"
   viewBox="0 0 400 400"
   fill="none"
   version="1.1"
   id="svg14"
   sodipodi:docname="gamma.svg"
   inkscape:version="1.3.2 (091e20ef0f, 2023-11-25, custom)"
   xmlns:inkscape="http://www.inkscape.org/namespaces/inkscape"
   xmlns:sodipodi="http://sodipodi.sourceforge.net/DTD/sodipodi-0.dtd"
   xmlns="http://www.w3.org/2000/svg"
   xmlns:svg="http://www.w3.org/2000/svg">
  <defs
     id="defs14">
    <rect
       x="21.899518"
       y="287.41353"
       width="44.896128"
       height="48.208571"
       id="rect19" />
    <rect
       x="186.17059"
       y="262.83302"
       width="38.553452"
       height="42.208075"
       id="rect18" />
    <rect
       x="187.64514"
       y="149.09169"
       width="35.579661"
       height="40.109136"
       id="rect17" />
    <rect
       x="274.961"
       y="40.775858"
       width="49.097533"
       height="49.157503"
       id="rect16" />
    <rect
       x="99.419154"
       y="43.770814"
       width="44.091829"
       height="38.147775"
       id="rect15" />
    <rect
       x="139.86694"
       y="356.75613"
       width="45.213614"
       height="35.131652"
       id="rect14" />
  </defs>
  <sodipodi:namedview
     id="namedview14"
     pagecolor="#ffffff"
     bordercolor="#000000"
     borderopacity="0.25"
     inkscape:showpageshadow="2"
     inkscape:pageopacity="0.0"
     inkscape:pagecheckerboard="0"
     inkscape:deskcolor="#d1d1d1"
     inkscape:zoom="1.1073303"
     inkscape:cx="250.15119"
     inkscape:cy="183.3238"
     inkscape:window-width="1440"
     inkscape:window-height="874"
     inkscape:window-x="0"
     inkscape:window-y="0"
     inkscape:window-maximized="1"
     inkscape:current-layer="svg14" />
  <rect
     width="400"
     height="400"
     fill="white"
     id="rect1" />
  <path
     d="M143.5 28.5C299 42.5 284 158.5 294.5 221.5"
     stroke="black"
     id="path1" />
  <path
     d="M121 369C97.5 338 65.5 306 101 205.5"
     stroke="black"
     id="path2" />
  <circle
     cx="120.676"
     cy="367.676"
     r="3.67647"
     fill="black"
     id="circle2" />
  <circle
     cx="144.676"
     cy="28.6765"
     r="3.67647"
     fill="black"
     id="circle3" />
  <path
     d="M100 208C110.667 177.5 142 122 199.5 122C238.759 122 285.5 142.5 294.5 221.5"
     stroke="black"
     id="path5" />
  <path
     d="M294.5 221C297.5 259 286.2 330.6 217 313C130.5 291 72 279 100.5 206.5"
     stroke="black"
     id="path6" />
  <circle
     cx="294.676"
     cy="220.676"
     r="3.67647"
     fill="black"
     id="circle10" />
  <circle
     cx="100.676"
     cy="206.676"
     r="3.67647"
     fill="black"
     id="circle11" />
  <path
     d="M247.938 59.5406L253.13 74.191L238.909 68.5692"
     stroke="black"
     id="path11" />
  <path
     d="M194.919 313.719L182.585 304.259L197.573 301.229"
     stroke="black"
     id="path12" />
  <path
     d="M80.981 307.631L85.392 292.727L93.5922 305.633"
     stroke="black"
     id="path13" />
  <path
     d="M192.174 115.319L206.205 122.007L192.174 128.087"
     stroke="black"
     id="path14" />
  <text
     xml:space="preserve"
     id="text14"
     style="white-space:pre;shape-inside:url(#rect14);display:inline;fill:#000000"><tspan
       x="139.86719"
       y="367.43319"
       id="tspan1">$a$</tspan></text>
  <text
     xml:space="preserve"
     id="text15"
     style="white-space:pre;shape-inside:url(#rect15);display:inline;fill:#000000"
     transform="translate(8,-4)"><tspan
       x="99.419922"
       y="54.448815"
       id="tspan2">$b$</tspan></text>
  <text
     xml:space="preserve"
     id="text16"
     style="white-space:pre;shape-inside:url(#rect16);display:inline;fill:#000000"><tspan
       x="274.96094"
       y="51.452722"
       id="tspan3">$u$</tspan></text>
  <text
     xml:space="preserve"
     id="text17"
     style="white-space:pre;shape-inside:url(#rect17);display:inline;fill:#000000"><tspan
       x="187.64453"
       y="159.76913"
       id="tspan4">$r$</tspan></text>
  <text
     xml:space="preserve"
     id="text18"
     style="white-space:pre;shape-inside:url(#rect18);display:inline;fill:#000000"
     transform="translate(0,6)"><tspan
       x="186.16992"
       y="273.50936"
       id="tspan5">$s$</tspan></text>
  <text
     xml:space="preserve"
     id="text19"
     style="white-space:pre;shape-inside:url(#rect19);display:inline;fill:#000000"
     transform="translate(22.734408,3.693427)"><tspan
       x="21.900391"
       y="298.09139"
       id="tspan6">$t$</tspan></text>
</svg>
