<svg width="400" height="400" viewBox="0 0 400 400" fill="none" xmlns="http://www.w3.org/2000/svg">
<rect width="400" height="400" fill="white"/>
<path d="M312.024 309.5C211.024 409.5 131.524 351.5 187.524 280C242.741 209.5 297.524 273.5 312.024 309.5Z" stroke="#36E028" stroke-width="3"/>
<path d="M358.024 112.5C357.19 159.5 346.824 264.8 312.024 310" stroke="#E01D94" stroke-width="3"/>
<path d="M27.5 310.597C30.1667 250.43 51 135 73.5 92" stroke="#6812E0" stroke-width="3"/>
<path d="M73.5 92.0966C121 -8.40324 252 7.59683 243.5 105.597C232.282 234.939 100 174.597 73.5 92.0966Z" stroke="#E0A528" stroke-width="3"/>
<circle cx="27.6765" cy="312.273" r="3.67647" fill="black"/>
<circle cx="358.2" cy="113.676" r="3.67647" fill="black"/>
<line x1="44.6" y1="224.135" x2="39.6" y2="211.135" stroke="#6812E0" stroke-width="3"/>
<line x1="242.6" y1="113.135" x2="237.6" y2="100.135" stroke="#E0A528" stroke-width="3"/>
<line x1="242.723" y1="112.811" x2="250.723" y2="99.8107" stroke="#E0A528" stroke-width="3"/>
<line x1="161.723" y1="329.214" x2="169.723" y2="316.214" stroke="#36E028" stroke-width="3"/>
<line x1="174.6" y1="330.538" x2="169.6" y2="317.538" stroke="#36E028" stroke-width="3"/>
<line x1="347.848" y1="212.04" x2="357.848" y2="200.04" stroke="#E01D94" stroke-width="3"/>
<line x1="347.6" y1="212.538" x2="342.6" y2="199.538" stroke="#E01D94" stroke-width="3"/>
<line x1="29.9393" y1="219.536" x2="39.9393" y2="209.536" stroke="#6812E0" stroke-width="3"/>
<path d="M45.016 332.133L44.856 340.389C45.7733 340.453 46.6907 340.602 47.608 340.837L47.544 341.957C47.2027 342.127 46.584 342.319 45.688 342.533C44.8133 342.725 43.9493 342.821 43.096 342.821C42.712 342.053 42.4987 341.317 42.456 340.613C40.024 342.213 38.3173 343.013 37.336 343.013C35.8213 343.013 34.6053 342.607 33.688 341.797C32.7707 340.986 32.312 339.855 32.312 338.405C32.312 335.055 34.36 333.327 38.456 333.221C40.8453 333.157 42.0507 333.125 42.072 333.125L42.04 332.037C41.9973 330.565 41.72 329.509 41.208 328.869C40.696 328.207 39.7787 327.877 38.456 327.877C37.9013 327.877 37.304 328.005 36.664 328.261L35.896 331.461C35.7893 331.482 35.608 331.493 35.352 331.493L34.04 331.397C33.6987 330.479 33.5173 329.21 33.496 327.589C33.9013 327.375 34.8293 327.055 36.28 326.629C37.7307 326.181 38.6587 325.957 39.064 325.957C41.24 325.957 42.776 326.437 43.672 327.397C44.568 328.357 45.016 329.935 45.016 332.133ZM38.04 340.837C38.6587 340.837 40.088 340.143 42.328 338.757L42.168 334.757C40.7173 334.885 39.5013 335.002 38.52 335.109C37.5387 335.215 36.7493 335.503 36.152 335.973C35.5547 336.421 35.256 337.135 35.256 338.117C35.256 339.93 36.184 340.837 38.04 340.837Z" fill="black"/>
<path d="M350.56 87.76C349.173 87.76 347.648 88.208 345.984 89.104C345.941 91.0667 345.899 92.8907 345.856 94.576C345.835 96.24 345.813 97.4027 345.792 98.064C346.325 98.5973 347.04 99.088 347.936 99.536C348.832 99.984 349.611 100.208 350.272 100.208C352.789 100.208 354.048 98.1387 354.048 94C354.048 92.4213 353.867 91.184 353.504 90.288C353.141 89.3707 352.725 88.72 352.256 88.336C351.787 87.952 351.221 87.76 350.56 87.76ZM345.088 78.224C345.749 78.224 346.219 78.2453 346.496 78.288C346.496 78.928 346.357 79.7813 346.08 80.848C346.08 81.3387 346.069 82.032 346.048 82.928C346.005 84.6773 345.984 86.16 345.984 87.376C348.629 86.032 350.347 85.36 351.136 85.36C353.12 85.36 354.592 86.1387 355.552 87.696C356.512 89.232 356.992 91.2373 356.992 93.712C356.992 96.1653 356.448 98.224 355.36 99.888C354.293 101.552 352.736 102.384 350.688 102.384C349.856 102.384 348.939 102.149 347.936 101.68C346.955 101.211 346.112 100.656 345.408 100.016C345.323 100.805 345.152 101.531 344.896 102.192C344.811 102.213 344.651 102.224 344.416 102.224C344.181 102.224 343.84 102.192 343.392 102.128L343.04 80.784C341.973 80.72 341.035 80.5813 340.224 80.368L340.352 78.704C341.44 78.384 343.019 78.224 345.088 78.224Z" fill="black"/>
</svg>
