<svg width="400" height="400" viewBox="0 0 400 400" fill="none" xmlns="http://www.w3.org/2000/svg">
<rect width="400" height="400" fill="white"/>
<path d="M312.024 309.5C211.024 409.5 131.524 351.5 187.524 280C242.741 209.5 297.524 273.5 312.024 309.5Z" stroke="#36E028" stroke-width="3"/>
<path d="M358.024 112.5C357.19 159.5 346.824 264.8 312.024 310" stroke="#E01D94" stroke-width="3"/>
<path d="M27.5 310.597C30.1667 250.43 51 135 73.5 92" stroke="#6812E0" stroke-width="3"/>
<path d="M73.5 92.0966C121 -8.40324 252 7.59683 243.5 105.597C232.282 234.939 100 174.597 73.5 92.0966Z" stroke="#E0A528" stroke-width="3"/>
<circle cx="27.6765" cy="312.273" r="3.67647" fill="black"/>
<circle cx="358.2" cy="113.676" r="3.67647" fill="black"/>
<circle cx="73.6765" cy="92.6765" r="3.67647" fill="black"/>
<circle cx="312.676" cy="308.676" r="3.67647" fill="black"/>
<line x1="44.6" y1="223.135" x2="39.6" y2="210.135" stroke="#6812E0" stroke-width="3"/>
<line x1="242.6" y1="113.135" x2="237.6" y2="100.135" stroke="#E0A528" stroke-width="3"/>
<line x1="242.723" y1="112.811" x2="250.723" y2="99.8107" stroke="#E0A528" stroke-width="3"/>
<line x1="161.723" y1="329.214" x2="169.723" y2="316.214" stroke="#36E028" stroke-width="3"/>
<line x1="175.683" y1="328.718" x2="169.683" y2="317.718" stroke="#36E028" stroke-width="3"/>
<line x1="346.848" y1="213.04" x2="356.848" y2="201.04" stroke="#E01D94" stroke-width="3"/>
<line x1="347.6" y1="212.538" x2="342.6" y2="199.538" stroke="#E01D94" stroke-width="3"/>
<line x1="31.7395" y1="222.59" x2="39.7395" y2="210.187" stroke="#6812E0" stroke-width="3"/>
<path d="M45.016 332.133L44.856 340.389C45.7733 340.453 46.6907 340.602 47.608 340.837L47.544 341.957C47.2027 342.127 46.584 342.319 45.688 342.533C44.8133 342.725 43.9493 342.821 43.096 342.821C42.712 342.053 42.4987 341.317 42.456 340.613C40.024 342.213 38.3173 343.013 37.336 343.013C35.8213 343.013 34.6053 342.607 33.688 341.797C32.7707 340.986 32.312 339.855 32.312 338.405C32.312 335.055 34.36 333.327 38.456 333.221C40.8453 333.157 42.0507 333.125 42.072 333.125L42.04 332.037C41.9973 330.565 41.72 329.509 41.208 328.869C40.696 328.207 39.7787 327.877 38.456 327.877C37.9013 327.877 37.304 328.005 36.664 328.261L35.896 331.461C35.7893 331.482 35.608 331.493 35.352 331.493L34.04 331.397C33.6987 330.479 33.5173 329.21 33.496 327.589C33.9013 327.375 34.8293 327.055 36.28 326.629C37.7307 326.181 38.6587 325.957 39.064 325.957C41.24 325.957 42.776 326.437 43.672 327.397C44.568 328.357 45.016 329.935 45.016 332.133ZM38.04 340.837C38.6587 340.837 40.088 340.143 42.328 338.757L42.168 334.757C40.7173 334.885 39.5013 335.002 38.52 335.109C37.5387 335.215 36.7493 335.503 36.152 335.973C35.5547 336.421 35.256 337.135 35.256 338.117C35.256 339.93 36.184 340.837 38.04 340.837Z" fill="black"/>
<path d="M258.976 47.048C258.869 46.9413 258.635 46.888 258.272 46.888C257.909 46.888 257.365 47.016 256.64 47.272C255.936 47.528 255.296 47.8267 254.72 48.168C254.592 52.904 254.507 56.456 254.464 58.824L257.152 59.08C257.152 59.6773 256.971 60.3173 256.608 61H249.248L249.152 59.88C250.133 59.5387 251.093 59.2827 252.032 59.112C251.904 53.6933 251.797 49.6827 251.712 47.08C250.539 47.016 249.6 46.888 248.896 46.696L249.024 45.032C250.155 44.712 251.829 44.552 254.048 44.552C254.389 45.0853 254.603 45.768 254.688 46.6C257.141 45.1067 258.603 44.36 259.072 44.36C259.541 44.36 260.085 44.456 260.704 44.648C261.323 44.8187 261.781 45.0107 262.08 45.224C262.08 47.3573 261.877 49.096 261.472 50.44C261.173 50.5253 260.821 50.568 260.416 50.568C260.032 50.568 259.765 50.5573 259.616 50.536L258.976 47.048Z" fill="#E0A528"/>
<path d="M62.808 194.952C63.5547 195.272 64.4613 195.432 65.528 195.432C66.616 195.432 67.4693 195.229 68.088 194.824C68.7067 194.419 69.016 193.864 69.016 193.16C69.016 192.456 68.728 191.869 68.152 191.4C67.576 190.931 66.872 190.515 66.04 190.152C65.208 189.789 64.376 189.405 63.544 189C62.712 188.595 62.008 188.061 61.432 187.4C60.856 186.739 60.568 185.971 60.568 185.096C60.568 183.624 61.0587 182.472 62.04 181.64C63.0213 180.787 64.376 180.36 66.104 180.36C67.8533 180.36 69.496 180.755 71.032 181.544C71.0533 181.757 71.064 182.333 71.064 183.272C71.064 184.189 70.968 184.979 70.776 185.64C70.264 185.811 69.656 185.896 68.952 185.896L67.896 182.632C67.4267 182.397 66.7867 182.28 65.976 182.28C65.1867 182.28 64.5573 182.493 64.088 182.92C63.6187 183.325 63.384 183.848 63.384 184.488C63.384 185.107 63.672 185.651 64.248 186.12C64.8453 186.589 65.56 187.016 66.392 187.4C67.224 187.763 68.056 188.157 68.888 188.584C69.72 188.989 70.424 189.533 71 190.216C71.5973 190.877 71.896 191.645 71.896 192.52C71.896 194.056 71.2987 195.261 70.104 196.136C68.9307 196.989 67.48 197.416 65.752 197.416C64.8133 197.416 63.8107 197.267 62.744 196.968C61.6773 196.648 60.7813 196.243 60.056 195.752C60.056 194.323 60.184 193.053 60.44 191.944C60.9307 191.859 61.592 191.816 62.424 191.816L62.808 194.952Z" fill="#6812E0"/>
<path d="M324.408 187.888C325.027 187.888 325.72 187.76 326.488 187.504C327.256 187.227 327.885 186.896 328.376 186.512C328.291 181.968 328.216 178.523 328.152 176.176C326.829 176.176 325.848 176.048 325.208 175.792L325.336 174.128C327.149 173.808 328.568 173.648 329.592 173.648C330.637 173.648 331.299 173.669 331.576 173.712C331.576 174.096 331.512 174.608 331.384 175.248C331.277 175.888 331.203 176.24 331.16 176.304L330.776 187.728C331.907 187.792 332.824 187.92 333.528 188.112L333.464 189.744C332.525 190.043 331.619 190.192 330.744 190.192C329.869 190.192 329.336 190.181 329.144 190.16C328.739 189.349 328.504 188.603 328.44 187.92C327.395 188.709 326.424 189.317 325.528 189.744C324.653 190.171 324.077 190.384 323.8 190.384C321.923 190.384 320.557 189.883 319.704 188.88C318.872 187.856 318.456 186.363 318.456 184.4C318.456 184.379 318.552 181.648 318.744 176.208C317.507 176.208 316.365 176.069 315.32 175.792L315.448 174.128C317.261 173.808 318.669 173.648 319.672 173.648C320.675 173.648 321.315 173.669 321.592 173.712C321.592 174.224 321.528 174.789 321.4 175.408C321.272 176.027 321.197 176.325 321.176 176.304L321.208 183.216C321.208 184.837 321.411 186.021 321.816 186.768C322.221 187.515 323.085 187.888 324.408 187.888Z" fill="#E01D94"/>
<path d="M220.52 230.016L220.264 217.952H217.8L217.704 216.832C217.917 216.683 218.536 216.405 219.56 216L222.184 211.904C222.611 211.947 222.941 212.053 223.176 212.224L223.144 215.744C224.744 215.744 226.056 215.851 227.08 216.064C227.08 216.64 226.899 217.269 226.536 217.952H223.08C223.037 220.512 222.995 224.395 222.952 229.6C224.147 229.664 225.341 229.877 226.536 230.24L226.504 231.36C226.205 231.552 225.437 231.776 224.2 232.032C222.984 232.288 221.981 232.416 221.192 232.416C221.085 232.245 220.947 231.883 220.776 231.328C220.605 230.752 220.52 230.315 220.52 230.016Z" fill="#36E028"/>
<path d="M350.56 87.76C349.173 87.76 347.648 88.208 345.984 89.104C345.941 91.0667 345.899 92.8907 345.856 94.576C345.835 96.24 345.813 97.4027 345.792 98.064C346.325 98.5973 347.04 99.088 347.936 99.536C348.832 99.984 349.611 100.208 350.272 100.208C352.789 100.208 354.048 98.1387 354.048 94C354.048 92.4213 353.867 91.184 353.504 90.288C353.141 89.3707 352.725 88.72 352.256 88.336C351.787 87.952 351.221 87.76 350.56 87.76ZM345.088 78.224C345.749 78.224 346.219 78.2453 346.496 78.288C346.496 78.928 346.357 79.7813 346.08 80.848C346.08 81.3387 346.069 82.032 346.048 82.928C346.005 84.6773 345.984 86.16 345.984 87.376C348.629 86.032 350.347 85.36 351.136 85.36C353.12 85.36 354.592 86.1387 355.552 87.696C356.512 89.232 356.992 91.2373 356.992 93.712C356.992 96.1653 356.448 98.224 355.36 99.888C354.293 101.552 352.736 102.384 350.688 102.384C349.856 102.384 348.939 102.149 347.936 101.68C346.955 101.211 346.112 100.656 345.408 100.016C345.323 100.805 345.152 101.531 344.896 102.192C344.811 102.213 344.651 102.224 344.416 102.224C344.181 102.224 343.84 102.192 343.392 102.128L343.04 80.784C341.973 80.72 341.035 80.5813 340.224 80.368L340.352 78.704C341.44 78.384 343.019 78.224 345.088 78.224Z" fill="black"/>
</svg>
