<svg width="400" height="400" viewBox="0 0 400 400" fill="none" xmlns="http://www.w3.org/2000/svg">
<rect width="400" height="400" fill="white"/>
<path d="M312.024 309.5C211.024 409.5 131.524 351.5 187.524 280C242.741 209.5 297.524 273.5 312.024 309.5Z" stroke="black"/>
<path d="M358.024 112.5C357.19 159.5 346.824 264.8 312.024 310" stroke="black"/>
<path d="M27.5 310.597C30.1667 250.43 51 135 73.5 92" stroke="black"/>
<path d="M73.5 92.0966C121 -8.40324 252 7.59683 243.5 105.597C232.282 234.939 100 174.597 73.5 92.0966Z" stroke="black"/>
<circle cx="27.6765" cy="312.273" r="3.67647" fill="black"/>
<circle cx="358.2" cy="113.676" r="3.67647" fill="black"/>
<circle cx="73.6765" cy="92.6765" r="3.67647" fill="black"/>
<circle cx="312.676" cy="308.676" r="3.67647" fill="black"/>
<path d="M41.314 340.597V325.049C41.314 324.459 41.158 324.052 40.846 323.827C40.5513 323.584 40.0573 323.445 39.364 323.411L39.442 322.579C40.1527 322.457 41.392 322.137 43.16 321.617L43.706 321.903V329.209C44.4513 327.909 45.526 327.259 46.93 327.259C48.7673 327.259 50.1107 327.857 50.96 329.053C51.8093 330.249 52.234 331.878 52.234 333.941C52.234 335.986 51.7313 337.641 50.726 338.907C49.7207 340.172 48.2733 340.805 46.384 340.805C45.2227 340.805 44.1653 340.345 43.212 339.427C42.952 339.808 42.7613 340.198 42.64 340.597H41.314ZM43.706 334.851V338.205C44.7113 339.141 45.5953 339.609 46.358 339.609C47.1207 339.609 47.7273 339.453 48.178 339.141C48.6287 338.811 48.958 338.343 49.166 337.737C49.5127 336.731 49.686 335.639 49.686 334.461C49.686 333.282 49.66 332.415 49.608 331.861C49.556 331.306 49.4433 330.743 49.27 330.171C48.9233 329.027 48.1433 328.455 46.93 328.455C45.5607 328.455 44.6593 329.139 44.226 330.509C43.8793 331.635 43.706 333.083 43.706 334.851Z" fill="black"/>
<path d="M250.808 48.75V40.3H248.52V39.52C250.357 38.896 251.553 37.7607 252.108 36.114H253.226V38.844H256.398V40.3H253.2V48.958C253.2 49.6513 253.278 50.1453 253.434 50.44C253.59 50.7347 253.945 50.882 254.5 50.882C255.055 50.882 255.635 50.7 256.242 50.336L256.788 51.168C255.921 51.8613 254.916 52.208 253.772 52.208C252.628 52.208 251.848 51.948 251.432 51.428C251.016 50.8907 250.808 49.998 250.808 48.75Z" fill="black"/>
<path d="M58.314 211.684V206.224C58.314 205.531 58.1667 205.063 57.872 204.82C57.5947 204.56 57.092 204.413 56.364 204.378L56.442 203.546C57.1527 203.425 58.392 203.104 60.16 202.584L60.706 202.87V211.996C60.706 213.955 61.512 214.934 63.124 214.934C63.6093 214.934 64.1207 214.761 64.658 214.414C65.1953 214.05 65.672 213.487 66.088 212.724V206.224C66.088 205.531 65.9407 205.063 65.646 204.82C65.3687 204.56 64.866 204.413 64.138 204.378L64.216 203.546C64.9267 203.425 66.166 203.104 67.934 202.584L68.48 202.87V214.284C68.9133 214.613 69.5633 214.865 70.43 215.038L70.326 216H66.608L66.322 214.232C65.3167 215.549 64.1467 216.208 62.812 216.208C59.8133 216.208 58.314 214.7 58.314 211.684Z" fill="black"/>
<path d="M323.744 203.648C324.385 203.839 325.079 203.934 325.824 203.934C326.569 203.934 327.176 203.726 327.644 203.31C328.112 202.877 328.346 202.374 328.346 201.802C328.346 201.23 328.173 200.771 327.826 200.424C327.497 200.06 327.081 199.8 326.578 199.644C326.075 199.471 325.521 199.271 324.914 199.046C324.325 198.821 323.779 198.587 323.276 198.344C322.773 198.101 322.349 197.711 322.002 197.174C321.673 196.619 321.508 195.952 321.508 195.172C321.508 194.115 321.924 193.274 322.756 192.65C323.605 192.009 324.671 191.688 325.954 191.688C327.254 191.688 328.32 191.957 329.152 192.494C329.984 193.014 330.4 193.655 330.4 194.418C330.4 195.389 329.967 195.874 329.1 195.874C328.441 195.874 327.947 195.623 327.618 195.12C327.913 194.877 328.06 194.557 328.06 194.158C328.06 193.742 327.852 193.413 327.436 193.17C327.037 192.927 326.509 192.806 325.85 192.806C325.209 192.806 324.671 192.979 324.238 193.326C323.822 193.655 323.614 194.123 323.614 194.73C323.614 195.337 323.848 195.839 324.316 196.238C324.801 196.637 325.382 196.949 326.058 197.174C326.734 197.382 327.41 197.616 328.086 197.876C328.779 198.119 329.36 198.517 329.828 199.072C330.313 199.627 330.556 200.329 330.556 201.178C330.556 202.443 330.123 203.423 329.256 204.116C328.389 204.809 327.167 205.156 325.59 205.156C324.949 205.156 324.203 205.052 323.354 204.844C322.522 204.619 321.898 204.367 321.482 204.09V200.632L322.99 200.45C323.111 201.871 323.363 202.937 323.744 203.648Z" fill="black"/>
<path d="M166.912 264.276C166.912 263.583 166.765 263.115 166.47 262.872C166.193 262.612 165.69 262.465 164.962 262.43L165.04 261.598C165.421 261.529 166.565 261.217 168.472 260.662L168.966 260.922L169.252 262.872C170.24 261.399 171.358 260.662 172.606 260.662C173.282 260.662 173.863 260.861 174.348 261.26C174.851 261.659 175.102 262.161 175.102 262.768C175.102 263.357 174.963 263.825 174.686 264.172C174.426 264.519 174.097 264.692 173.698 264.692C173.317 264.692 172.987 264.614 172.71 264.458C172.433 264.302 172.259 264.094 172.19 263.834C172.381 263.643 172.476 263.383 172.476 263.054C172.476 262.482 172.207 262.196 171.67 262.196C171.133 262.196 170.604 262.595 170.084 263.392C169.564 264.189 169.304 265.03 169.304 265.914V272.284C169.824 272.631 170.561 272.882 171.514 273.038L171.41 274H164.962L165.066 272.986C165.811 272.865 166.427 272.631 166.912 272.284V264.276Z" fill="black"/>
<path d="M344.862 98.208C343.753 98.208 342.886 97.9307 342.262 97.376C341.655 96.804 341.352 95.9633 341.352 94.854C341.352 93.7273 341.777 92.8173 342.626 92.124C343.493 91.4307 344.749 91.0233 346.396 90.902L348.606 90.746V88.458C348.606 87.522 348.415 86.846 348.034 86.43C347.67 85.9967 347.081 85.78 346.266 85.78C344.793 85.78 344.056 86.2047 344.056 87.054C344.056 87.522 344.342 87.8687 344.914 88.094C344.914 88.978 344.377 89.42 343.302 89.42C342.817 89.42 342.427 89.2727 342.132 88.978C341.837 88.6833 341.69 88.2933 341.69 87.808C341.69 86.8373 342.097 86.0747 342.912 85.52C343.744 84.948 344.879 84.662 346.318 84.662C347.774 84.662 348.918 85 349.75 85.676C350.582 86.3347 350.998 87.262 350.998 88.458V96.284C351.431 96.6133 352.081 96.8647 352.948 97.038L352.844 98H348.97L348.684 96.752C347.661 97.7227 346.387 98.208 344.862 98.208ZM343.822 94.75C343.822 96.2753 344.411 97.038 345.59 97.038C346.526 97.038 347.531 96.5007 348.606 95.426V91.89L346.5 92.072C345.668 92.1413 345.009 92.4187 344.524 92.904C344.056 93.3893 343.822 94.0047 343.822 94.75Z" fill="black"/>
<path d="M356.381 197.518L348.033 210.629L343.708 195.962" stroke="black"/>
<path d="M170.226 295.772L182.718 286.524L181.5 301.767" stroke="black"/>
<path d="M33.3249 209.86L42.5674 197.363L45.8588 212.296" stroke="black"/>
<path d="M248.904 114.046L240.328 127.009L236.26 112.269" stroke="black"/>
</svg>
