<svg width="400" height="400" viewBox="0 0 400 400" fill="none" xmlns="http://www.w3.org/2000/svg">
<g clip-path="url(#clip0_2_48)">
<rect width="400" height="400" fill="white"/>
<path d="M120 195C124 169.5 146 106 155 89.0968" stroke="#E01D94" stroke-width="3"/>
<path d="M174.5 379C160.5 359.167 109.2 249.3 120 194.5" stroke="#6812E0" stroke-width="3"/>
<path d="M64.5 318.5C79.5 293.667 111.6 232.9 120 194.5" stroke="#E0A528" stroke-width="3"/>
<path d="M155.5 89.0966C203 -11.4032 334 4.59683 325.5 102.597C314.282 231.939 182 171.597 155.5 89.0966Z" stroke="#0053E0" stroke-width="3"/>
<circle cx="155.676" cy="89.2733" r="3.67647" fill="black"/>
<circle cx="64.6765" cy="319.676" r="3.67647" fill="black"/>
<circle cx="175.676" cy="379.676" r="3.67647" fill="black"/>
<path d="M135.5 159.5L133.533 146.179" stroke="#E01D94" stroke-width="3"/>
<line x1="324.6" y1="110.135" x2="319.6" y2="97.1353" stroke="#0053E0" stroke-width="3"/>
<line x1="324.723" y1="109.811" x2="332.723" y2="96.8107" stroke="#0053E0" stroke-width="3"/>
<line x1="122.939" y1="154.939" x2="132.939" y2="144.939" stroke="#E01D94" stroke-width="3"/>
<path d="M79.016 342.536L78.856 350.792C79.7733 350.856 80.6907 351.005 81.608 351.24L81.544 352.36C81.2027 352.531 80.584 352.723 79.688 352.936C78.8133 353.128 77.9493 353.224 77.096 353.224C76.712 352.456 76.4987 351.72 76.456 351.016C74.024 352.616 72.3173 353.416 71.336 353.416C69.8213 353.416 68.6053 353.011 67.688 352.2C66.7707 351.389 66.312 350.259 66.312 348.808C66.312 345.459 68.36 343.731 72.456 343.624C74.8453 343.56 76.0507 343.528 76.072 343.528L76.04 342.44C75.9973 340.968 75.72 339.912 75.208 339.272C74.696 338.611 73.7787 338.28 72.456 338.28C71.9013 338.28 71.304 338.408 70.664 338.664L69.896 341.864C69.7893 341.885 69.608 341.896 69.352 341.896L68.04 341.8C67.6987 340.883 67.5173 339.613 67.496 337.992C67.9013 337.779 68.8293 337.459 70.28 337.032C71.7307 336.584 72.6587 336.36 73.064 336.36C75.24 336.36 76.776 336.84 77.672 337.8C78.568 338.76 79.016 340.339 79.016 342.536ZM72.04 351.24C72.6587 351.24 74.088 350.547 76.328 349.16L76.168 345.16C74.7173 345.288 73.5013 345.405 72.52 345.512C71.5387 345.619 70.7493 345.907 70.152 346.376C69.5547 346.824 69.256 347.539 69.256 348.52C69.256 350.333 70.184 351.24 72.04 351.24Z" fill="black"/>
<path d="M196.56 365.76C195.173 365.76 193.648 366.208 191.984 367.104C191.941 369.067 191.899 370.891 191.856 372.576C191.835 374.24 191.813 375.403 191.792 376.064C192.325 376.597 193.04 377.088 193.936 377.536C194.832 377.984 195.611 378.208 196.272 378.208C198.789 378.208 200.048 376.139 200.048 372C200.048 370.421 199.867 369.184 199.504 368.288C199.141 367.371 198.725 366.72 198.256 366.336C197.787 365.952 197.221 365.76 196.56 365.76ZM191.088 356.224C191.749 356.224 192.219 356.245 192.496 356.288C192.496 356.928 192.357 357.781 192.08 358.848C192.08 359.339 192.069 360.032 192.048 360.928C192.005 362.677 191.984 364.16 191.984 365.376C194.629 364.032 196.347 363.36 197.136 363.36C199.12 363.36 200.592 364.139 201.552 365.696C202.512 367.232 202.992 369.237 202.992 371.712C202.992 374.165 202.448 376.224 201.36 377.888C200.293 379.552 198.736 380.384 196.688 380.384C195.856 380.384 194.939 380.149 193.936 379.68C192.955 379.211 192.112 378.656 191.408 378.016C191.323 378.805 191.152 379.531 190.896 380.192C190.811 380.213 190.651 380.224 190.416 380.224C190.181 380.224 189.84 380.192 189.392 380.128L189.04 358.784C187.973 358.72 187.035 358.581 186.224 358.368L186.352 356.704C187.44 356.384 189.019 356.224 191.088 356.224Z" fill="black"/>
</g>
<defs>
<clipPath id="clip0_2_48">
<rect width="400" height="400" fill="white"/>
</clipPath>
</defs>
</svg>
