<svg width="400" height="400" viewBox="0 0 400 400" fill="none" xmlns="http://www.w3.org/2000/svg">
<g clip-path="url(#clip0_2_48)">
<rect width="400" height="400" fill="white"/>
<path d="M120 195C124 169.5 146 106 155 89.0968" stroke="black"/>
<path d="M174.5 379C160.5 359.167 109.2 249.3 120 194.5" stroke="black"/>
<path d="M64.5 318.5C79.5 293.667 111.6 232.9 120 194.5" stroke="black"/>
<path d="M155.5 89.0966C203 -11.4032 334 4.59683 325.5 102.597C314.282 231.939 182 171.597 155.5 89.0966Z" stroke="black"/>
<circle cx="155.676" cy="89.2733" r="3.67647" fill="black"/>
<circle cx="64.6765" cy="319.676" r="3.67647" fill="black"/>
<circle cx="175.676" cy="379.676" r="3.67647" fill="black"/>
<path d="M69.862 344.208C68.7527 344.208 67.886 343.931 67.262 343.376C66.6553 342.804 66.352 341.963 66.352 340.854C66.352 339.727 66.7767 338.817 67.626 338.124C68.4927 337.431 69.7493 337.023 71.396 336.902L73.606 336.746V334.458C73.606 333.522 73.4153 332.846 73.034 332.43C72.67 331.997 72.0807 331.78 71.266 331.78C69.7927 331.78 69.056 332.205 69.056 333.054C69.056 333.522 69.342 333.869 69.914 334.094C69.914 334.978 69.3767 335.42 68.302 335.42C67.8167 335.42 67.4267 335.273 67.132 334.978C66.8373 334.683 66.69 334.293 66.69 333.808C66.69 332.837 67.0973 332.075 67.912 331.52C68.744 330.948 69.8793 330.662 71.318 330.662C72.774 330.662 73.918 331 74.75 331.676C75.582 332.335 75.998 333.262 75.998 334.458V342.284C76.4313 342.613 77.0813 342.865 77.948 343.038L77.844 344H73.97L73.684 342.752C72.6613 343.723 71.3873 344.208 69.862 344.208ZM68.822 340.75C68.822 342.275 69.4113 343.038 70.59 343.038C71.526 343.038 72.5313 342.501 73.606 341.426V337.89L71.5 338.072C70.668 338.141 70.0093 338.419 69.524 338.904C69.056 339.389 68.822 340.005 68.822 340.75Z" fill="black"/>
<path d="M189.314 373V357.452C189.314 356.863 189.158 356.455 188.846 356.23C188.551 355.987 188.057 355.849 187.364 355.814L187.442 354.982C188.153 354.861 189.392 354.54 191.16 354.02L191.706 354.306V361.612C192.451 360.312 193.526 359.662 194.93 359.662C196.767 359.662 198.111 360.26 198.96 361.456C199.809 362.652 200.234 364.281 200.234 366.344C200.234 368.389 199.731 370.045 198.726 371.31C197.721 372.575 196.273 373.208 194.384 373.208C193.223 373.208 192.165 372.749 191.212 371.83C190.952 372.211 190.761 372.601 190.64 373H189.314ZM191.706 367.254V370.608C192.711 371.544 193.595 372.012 194.358 372.012C195.121 372.012 195.727 371.856 196.178 371.544C196.629 371.215 196.958 370.747 197.166 370.14C197.513 369.135 197.686 368.043 197.686 366.864C197.686 365.685 197.66 364.819 197.608 364.264C197.556 363.709 197.443 363.146 197.27 362.574C196.923 361.43 196.143 360.858 194.93 360.858C193.561 360.858 192.659 361.543 192.226 362.912C191.879 364.039 191.706 365.486 191.706 367.254Z" fill="black"/>
<path d="M266.912 44.276C266.912 43.5827 266.765 43.1147 266.47 42.872C266.193 42.612 265.69 42.4647 264.962 42.43L265.04 41.598C265.421 41.5287 266.565 41.2167 268.472 40.662L268.966 40.922L269.252 42.872C270.24 41.3987 271.358 40.662 272.606 40.662C273.282 40.662 273.863 40.8613 274.348 41.26C274.851 41.6587 275.102 42.1613 275.102 42.768C275.102 43.3573 274.963 43.8253 274.686 44.172C274.426 44.5187 274.097 44.692 273.698 44.692C273.317 44.692 272.987 44.614 272.71 44.458C272.433 44.302 272.259 44.094 272.19 43.834C272.381 43.6433 272.476 43.3833 272.476 43.054C272.476 42.482 272.207 42.196 271.67 42.196C271.133 42.196 270.604 42.5947 270.084 43.392C269.564 44.1893 269.304 45.03 269.304 45.914V52.284C269.824 52.6307 270.561 52.882 271.514 53.038L271.41 54H264.962L265.066 52.986C265.811 52.8647 266.427 52.6307 266.912 52.284V44.276Z" fill="black"/>
<path d="M154.744 160.648C155.385 160.839 156.079 160.934 156.824 160.934C157.569 160.934 158.176 160.726 158.644 160.31C159.112 159.877 159.346 159.374 159.346 158.802C159.346 158.23 159.173 157.771 158.826 157.424C158.497 157.06 158.081 156.8 157.578 156.644C157.075 156.471 156.521 156.271 155.914 156.046C155.325 155.821 154.779 155.587 154.276 155.344C153.773 155.101 153.349 154.711 153.002 154.174C152.673 153.619 152.508 152.952 152.508 152.172C152.508 151.115 152.924 150.274 153.756 149.65C154.605 149.009 155.671 148.688 156.954 148.688C158.254 148.688 159.32 148.957 160.152 149.494C160.984 150.014 161.4 150.655 161.4 151.418C161.4 152.389 160.967 152.874 160.1 152.874C159.441 152.874 158.947 152.623 158.618 152.12C158.913 151.877 159.06 151.557 159.06 151.158C159.06 150.742 158.852 150.413 158.436 150.17C158.037 149.927 157.509 149.806 156.85 149.806C156.209 149.806 155.671 149.979 155.238 150.326C154.822 150.655 154.614 151.123 154.614 151.73C154.614 152.337 154.848 152.839 155.316 153.238C155.801 153.637 156.382 153.949 157.058 154.174C157.734 154.382 158.41 154.616 159.086 154.876C159.779 155.119 160.36 155.517 160.828 156.072C161.313 156.627 161.556 157.329 161.556 158.178C161.556 159.443 161.123 160.423 160.256 161.116C159.389 161.809 158.167 162.156 156.59 162.156C155.949 162.156 155.203 162.052 154.354 161.844C153.522 161.619 152.898 161.367 152.482 161.09V157.632L153.99 157.45C154.111 158.871 154.363 159.937 154.744 160.648Z" fill="black"/>
<path d="M158.314 291.684V286.224C158.314 285.531 158.167 285.063 157.872 284.82C157.595 284.56 157.092 284.413 156.364 284.378L156.442 283.546C157.153 283.425 158.392 283.104 160.16 282.584L160.706 282.87V291.996C160.706 293.955 161.512 294.934 163.124 294.934C163.609 294.934 164.121 294.761 164.658 294.414C165.195 294.05 165.672 293.487 166.088 292.724V286.224C166.088 285.531 165.941 285.063 165.646 284.82C165.369 284.56 164.866 284.413 164.138 284.378L164.216 283.546C164.927 283.425 166.166 283.104 167.934 282.584L168.48 282.87V294.284C168.913 294.613 169.563 294.865 170.43 295.038L170.326 296H166.608L166.322 294.232C165.317 295.549 164.147 296.208 162.812 296.208C159.813 296.208 158.314 294.7 158.314 291.684Z" fill="black"/>
<path d="M69.808 249.75V241.3H67.52V240.52C69.3573 239.896 70.5533 238.761 71.108 237.114H72.226V239.844H75.398V241.3H72.2V249.958C72.2 250.651 72.278 251.145 72.434 251.44C72.59 251.735 72.9453 251.882 73.5 251.882C74.0547 251.882 74.6353 251.7 75.242 251.336L75.788 252.168C74.9213 252.861 73.916 253.208 72.772 253.208C71.628 253.208 70.848 252.948 70.432 252.428C70.016 251.891 69.808 250.998 69.808 249.75Z" fill="black"/>
<circle cx="119.676" cy="195.676" r="3.67647" fill="black"/>
<path d="M124.164 153.554L134.662 142.092L136.375 157.287" stroke="black"/>
<path d="M82.4707 272.387L94.2875 262.29L94.1353 277.581" stroke="black"/>
<path d="M82.4707 272.387L94.2875 262.29L94.1353 277.581" stroke="black"/>
<path d="M133.782 308.65L135.807 293.24L145.925 304.705" stroke="black"/>
<path d="M332.625 81.6298L325.936 95.6603L319.856 81.6298" stroke="black"/>
<path d="M332.625 81.6298L325.936 95.6603L319.856 81.6298" stroke="black"/>
</g>
<defs>
<clipPath id="clip0_2_48">
<rect width="400" height="400" fill="white"/>
</clipPath>
</defs>
</svg>
