<svg width="400" height="400" viewBox="0 0 400 400" fill="none" xmlns="http://www.w3.org/2000/svg">
<g clip-path="url(#clip0_2_48)">
<rect width="400" height="400" fill="white"/>
<path d="M120 195C124 169.5 146 106 155 89.0968" stroke="#E01D94" stroke-width="3"/>
<path d="M174.5 379C160.5 359.167 109.2 249.3 120 194.5" stroke="#6812E0" stroke-width="3"/>
<path d="M64.5 318.5C79.5 293.667 111.6 232.9 120 194.5" stroke="#E0A528" stroke-width="3"/>
<path d="M155.5 89.0966C203 -11.4032 334 4.59683 325.5 102.597C314.282 231.939 182 171.597 155.5 89.0966Z" stroke="#0053E0" stroke-width="3"/>
<circle cx="155.676" cy="89.2733" r="3.67647" fill="black"/>
<circle cx="64.6765" cy="319.676" r="3.67647" fill="black"/>
<circle cx="175.676" cy="379.676" r="3.67647" fill="black"/>
<path d="M135.5 159.5L133.533 146.179" stroke="#E01D94" stroke-width="3"/>
<line x1="324.6" y1="110.135" x2="319.6" y2="97.1353" stroke="#0053E0" stroke-width="3"/>
<line x1="324.723" y1="110.811" x2="332.723" y2="97.8107" stroke="#0053E0" stroke-width="3"/>
<line x1="123.939" y1="154.939" x2="133.939" y2="144.939" stroke="#E01D94" stroke-width="3"/>
<path d="M79.016 342.536L78.856 350.792C79.7733 350.856 80.6907 351.005 81.608 351.24L81.544 352.36C81.2027 352.531 80.584 352.723 79.688 352.936C78.8133 353.128 77.9493 353.224 77.096 353.224C76.712 352.456 76.4987 351.72 76.456 351.016C74.024 352.616 72.3173 353.416 71.336 353.416C69.8213 353.416 68.6053 353.011 67.688 352.2C66.7707 351.389 66.312 350.259 66.312 348.808C66.312 345.459 68.36 343.731 72.456 343.624C74.8453 343.56 76.0507 343.528 76.072 343.528L76.04 342.44C75.9973 340.968 75.72 339.912 75.208 339.272C74.696 338.611 73.7787 338.28 72.456 338.28C71.9013 338.28 71.304 338.408 70.664 338.664L69.896 341.864C69.7893 341.885 69.608 341.896 69.352 341.896L68.04 341.8C67.6987 340.883 67.5173 339.613 67.496 337.992C67.9013 337.779 68.8293 337.459 70.28 337.032C71.7307 336.584 72.6587 336.36 73.064 336.36C75.24 336.36 76.776 336.84 77.672 337.8C78.568 338.76 79.016 340.339 79.016 342.536ZM72.04 351.24C72.6587 351.24 74.088 350.547 76.328 349.16L76.168 345.16C74.7173 345.288 73.5013 345.405 72.52 345.512C71.5387 345.619 70.7493 345.907 70.152 346.376C69.5547 346.824 69.256 347.539 69.256 348.52C69.256 350.333 70.184 351.24 72.04 351.24Z" fill="black"/>
<path d="M196.56 365.76C195.173 365.76 193.648 366.208 191.984 367.104C191.941 369.067 191.899 370.891 191.856 372.576C191.835 374.24 191.813 375.403 191.792 376.064C192.325 376.597 193.04 377.088 193.936 377.536C194.832 377.984 195.611 378.208 196.272 378.208C198.789 378.208 200.048 376.139 200.048 372C200.048 370.421 199.867 369.184 199.504 368.288C199.141 367.371 198.725 366.72 198.256 366.336C197.787 365.952 197.221 365.76 196.56 365.76ZM191.088 356.224C191.749 356.224 192.219 356.245 192.496 356.288C192.496 356.928 192.357 357.781 192.08 358.848C192.08 359.339 192.069 360.032 192.048 360.928C192.005 362.677 191.984 364.16 191.984 365.376C194.629 364.032 196.347 363.36 197.136 363.36C199.12 363.36 200.592 364.139 201.552 365.696C202.512 367.232 202.992 369.237 202.992 371.712C202.992 374.165 202.448 376.224 201.36 377.888C200.293 379.552 198.736 380.384 196.688 380.384C195.856 380.384 194.939 380.149 193.936 379.68C192.955 379.211 192.112 378.656 191.408 378.016C191.323 378.805 191.152 379.531 190.896 380.192C190.811 380.213 190.651 380.224 190.416 380.224C190.181 380.224 189.84 380.192 189.392 380.128L189.04 358.784C187.973 358.72 187.035 358.581 186.224 358.368L186.352 356.704C187.44 356.384 189.019 356.224 191.088 356.224Z" fill="black"/>
<path d="M274.976 49.048C274.869 48.9413 274.635 48.888 274.272 48.888C273.909 48.888 273.365 49.016 272.64 49.272C271.936 49.528 271.296 49.8267 270.72 50.168C270.592 54.904 270.507 58.456 270.464 60.824L273.152 61.08C273.152 61.6773 272.971 62.3173 272.608 63H265.248L265.152 61.88C266.133 61.5387 267.093 61.2827 268.032 61.112C267.904 55.6933 267.797 51.6827 267.712 49.08C266.539 49.016 265.6 48.888 264.896 48.696L265.024 47.032C266.155 46.712 267.829 46.552 270.048 46.552C270.389 47.0853 270.603 47.768 270.688 48.6C273.141 47.1067 274.603 46.36 275.072 46.36C275.541 46.36 276.085 46.456 276.704 46.648C277.323 46.8187 277.781 47.0107 278.08 47.224C278.08 49.3573 277.877 51.096 277.472 52.44C277.173 52.5253 276.821 52.568 276.416 52.568C276.032 52.568 275.765 52.5573 275.616 52.536L274.976 49.048Z" fill="#0053E0"/>
<path d="M154.808 168.952C155.555 169.272 156.461 169.432 157.528 169.432C158.616 169.432 159.469 169.229 160.088 168.824C160.707 168.419 161.016 167.864 161.016 167.16C161.016 166.456 160.728 165.869 160.152 165.4C159.576 164.931 158.872 164.515 158.04 164.152C157.208 163.789 156.376 163.405 155.544 163C154.712 162.595 154.008 162.061 153.432 161.4C152.856 160.739 152.568 159.971 152.568 159.096C152.568 157.624 153.059 156.472 154.04 155.64C155.021 154.787 156.376 154.36 158.104 154.36C159.853 154.36 161.496 154.755 163.032 155.544C163.053 155.757 163.064 156.333 163.064 157.272C163.064 158.189 162.968 158.979 162.776 159.64C162.264 159.811 161.656 159.896 160.952 159.896L159.896 156.632C159.427 156.397 158.787 156.28 157.976 156.28C157.187 156.28 156.557 156.493 156.088 156.92C155.619 157.325 155.384 157.848 155.384 158.488C155.384 159.107 155.672 159.651 156.248 160.12C156.845 160.589 157.56 161.016 158.392 161.4C159.224 161.763 160.056 162.157 160.888 162.584C161.72 162.989 162.424 163.533 163 164.216C163.597 164.877 163.896 165.645 163.896 166.52C163.896 168.056 163.299 169.261 162.104 170.136C160.931 170.989 159.48 171.416 157.752 171.416C156.813 171.416 155.811 171.267 154.744 170.968C153.677 170.648 152.781 170.243 152.056 169.752C152.056 168.323 152.184 167.053 152.44 165.944C152.931 165.859 153.592 165.816 154.424 165.816L154.808 168.952Z" fill="#E01D94"/>
<path d="M167.408 299.888C168.027 299.888 168.72 299.76 169.488 299.504C170.256 299.227 170.885 298.896 171.376 298.512C171.291 293.968 171.216 290.523 171.152 288.176C169.829 288.176 168.848 288.048 168.208 287.792L168.336 286.128C170.149 285.808 171.568 285.648 172.592 285.648C173.637 285.648 174.299 285.669 174.576 285.712C174.576 286.096 174.512 286.608 174.384 287.248C174.277 287.888 174.203 288.24 174.16 288.304L173.776 299.728C174.907 299.792 175.824 299.92 176.528 300.112L176.464 301.744C175.525 302.043 174.619 302.192 173.744 302.192C172.869 302.192 172.336 302.181 172.144 302.16C171.739 301.349 171.504 300.603 171.44 299.92C170.395 300.709 169.424 301.317 168.528 301.744C167.653 302.171 167.077 302.384 166.8 302.384C164.923 302.384 163.557 301.883 162.704 300.88C161.872 299.856 161.456 298.363 161.456 296.4C161.456 296.379 161.552 293.648 161.744 288.208C160.507 288.208 159.365 288.069 158.32 287.792L158.448 286.128C160.261 285.808 161.669 285.648 162.672 285.648C163.675 285.648 164.315 285.669 164.592 285.712C164.592 286.224 164.528 286.789 164.4 287.408C164.272 288.027 164.197 288.325 164.176 288.304L164.208 295.216C164.208 296.837 164.411 298.021 164.816 298.768C165.221 299.515 166.085 299.888 167.408 299.888Z" fill="#6812E0"/>
<path d="M64.52 251.016L64.264 238.952H61.8L61.704 237.832C61.9173 237.683 62.536 237.405 63.56 237L66.184 232.904C66.6107 232.947 66.9413 233.053 67.176 233.224L67.144 236.744C68.744 236.744 70.056 236.851 71.08 237.064C71.08 237.64 70.8987 238.269 70.536 238.952H67.08C67.0373 241.512 66.9947 245.395 66.952 250.6C68.1467 250.664 69.3413 250.877 70.536 251.24L70.504 252.36C70.2053 252.552 69.4373 252.776 68.2 253.032C66.984 253.288 65.9813 253.416 65.192 253.416C65.0853 253.245 64.9467 252.883 64.776 252.328C64.6053 251.752 64.52 251.315 64.52 251.016Z" fill="#E0A528"/>
<circle cx="119.676" cy="195.676" r="3.67647" fill="black"/>
</g>
<defs>
<clipPath id="clip0_2_48">
<rect width="400" height="400" fill="white"/>
</clipPath>
</defs>
</svg>
