<svg width="400" height="400" viewBox="0 0 400 400" fill="none" xmlns="http://www.w3.org/2000/svg">
<rect width="400" height="400" fill="white"/>
<path d="M143.5 28.5C299 42.5 284 158.5 294.5 221.5" stroke="black"/>
<path d="M121 369C97.5 338 65.5 306 101 205.5" stroke="black"/>
<circle cx="120.676" cy="367.676" r="3.67647" fill="black"/>
<circle cx="144.676" cy="28.6765" r="3.67647" fill="black"/>
<path d="M141.862 374.208C140.753 374.208 139.886 373.931 139.262 373.376C138.655 372.804 138.352 371.963 138.352 370.854C138.352 369.727 138.777 368.817 139.626 368.124C140.493 367.431 141.749 367.023 143.396 366.902L145.606 366.746V364.458C145.606 363.522 145.415 362.846 145.034 362.43C144.67 361.997 144.081 361.78 143.266 361.78C141.793 361.78 141.056 362.205 141.056 363.054C141.056 363.522 141.342 363.869 141.914 364.094C141.914 364.978 141.377 365.42 140.302 365.42C139.817 365.42 139.427 365.273 139.132 364.978C138.837 364.683 138.69 364.293 138.69 363.808C138.69 362.837 139.097 362.075 139.912 361.52C140.744 360.948 141.879 360.662 143.318 360.662C144.774 360.662 145.918 361 146.75 361.676C147.582 362.335 147.998 363.262 147.998 364.458V372.284C148.431 372.613 149.081 372.865 149.948 373.038L149.844 374H145.97L145.684 372.752C144.661 373.723 143.387 374.208 141.862 374.208ZM140.822 370.75C140.822 372.275 141.411 373.038 142.59 373.038C143.526 373.038 144.531 372.501 145.606 371.426V367.89L143.5 368.072C142.668 368.141 142.009 368.419 141.524 368.904C141.056 369.389 140.822 370.005 140.822 370.75Z" fill="black"/>
<path d="M133.314 57V41.452C133.314 40.8627 133.158 40.4553 132.846 40.23C132.551 39.9873 132.057 39.8487 131.364 39.814L131.442 38.982C132.153 38.8607 133.392 38.54 135.16 38.02L135.706 38.306V45.612C136.451 44.312 137.526 43.662 138.93 43.662C140.767 43.662 142.111 44.26 142.96 45.456C143.809 46.652 144.234 48.2813 144.234 50.344C144.234 52.3893 143.731 54.0447 142.726 55.31C141.721 56.5753 140.273 57.208 138.384 57.208C137.223 57.208 136.165 56.7487 135.212 55.83C134.952 56.2113 134.761 56.6013 134.64 57H133.314ZM135.706 51.254V54.608C136.711 55.544 137.595 56.012 138.358 56.012C139.121 56.012 139.727 55.856 140.178 55.544C140.629 55.2147 140.958 54.7467 141.166 54.14C141.513 53.1347 141.686 52.0427 141.686 50.864C141.686 49.6853 141.66 48.8187 141.608 48.264C141.556 47.7093 141.443 47.146 141.27 46.574C140.923 45.43 140.143 44.858 138.93 44.858C137.561 44.858 136.659 45.5427 136.226 46.912C135.879 48.0387 135.706 49.486 135.706 51.254Z" fill="black"/>
<path d="M100 208C110.667 177.5 142 122 199.5 122C238.759 122 285.5 142.5 294.5 221.5" stroke="black"/>
<path d="M294.5 221C297.5 259 286.2 330.6 217 313C130.5 291 72 279 100.5 206.5" stroke="black"/>
<path d="M188.912 138.276C188.912 137.583 188.765 137.115 188.47 136.872C188.193 136.612 187.69 136.465 186.962 136.43L187.04 135.598C187.421 135.529 188.565 135.217 190.472 134.662L190.966 134.922L191.252 136.872C192.24 135.399 193.358 134.662 194.606 134.662C195.282 134.662 195.863 134.861 196.348 135.26C196.851 135.659 197.102 136.161 197.102 136.768C197.102 137.357 196.963 137.825 196.686 138.172C196.426 138.519 196.097 138.692 195.698 138.692C195.317 138.692 194.987 138.614 194.71 138.458C194.433 138.302 194.259 138.094 194.19 137.834C194.381 137.643 194.476 137.383 194.476 137.054C194.476 136.482 194.207 136.196 193.67 136.196C193.133 136.196 192.604 136.595 192.084 137.392C191.564 138.189 191.304 139.03 191.304 139.914V146.284C191.824 146.631 192.561 146.882 193.514 147.038L193.41 148H186.962L187.066 146.986C187.811 146.865 188.427 146.631 188.912 146.284V138.276Z" fill="black"/>
<path d="M205.744 289.648C206.385 289.839 207.079 289.934 207.824 289.934C208.569 289.934 209.176 289.726 209.644 289.31C210.112 288.877 210.346 288.374 210.346 287.802C210.346 287.23 210.173 286.771 209.826 286.424C209.497 286.06 209.081 285.8 208.578 285.644C208.075 285.471 207.521 285.271 206.914 285.046C206.325 284.821 205.779 284.587 205.276 284.344C204.773 284.101 204.349 283.711 204.002 283.174C203.673 282.619 203.508 281.952 203.508 281.172C203.508 280.115 203.924 279.274 204.756 278.65C205.605 278.009 206.671 277.688 207.954 277.688C209.254 277.688 210.32 277.957 211.152 278.494C211.984 279.014 212.4 279.655 212.4 280.418C212.4 281.389 211.967 281.874 211.1 281.874C210.441 281.874 209.947 281.623 209.618 281.12C209.913 280.877 210.06 280.557 210.06 280.158C210.06 279.742 209.852 279.413 209.436 279.17C209.037 278.927 208.509 278.806 207.85 278.806C207.209 278.806 206.671 278.979 206.238 279.326C205.822 279.655 205.614 280.123 205.614 280.73C205.614 281.337 205.848 281.839 206.316 282.238C206.801 282.637 207.382 282.949 208.058 283.174C208.734 283.382 209.41 283.616 210.086 283.876C210.779 284.119 211.36 284.517 211.828 285.072C212.313 285.627 212.556 286.329 212.556 287.178C212.556 288.443 212.123 289.423 211.256 290.116C210.389 290.809 209.167 291.156 207.59 291.156C206.949 291.156 206.203 291.052 205.354 290.844C204.522 290.619 203.898 290.367 203.482 290.09V286.632L204.99 286.45C205.111 287.871 205.363 288.937 205.744 289.648Z" fill="black"/>
<path d="M261.314 46.684V41.224C261.314 40.5307 261.167 40.0627 260.872 39.82C260.595 39.56 260.092 39.4127 259.364 39.378L259.442 38.546C260.153 38.4247 261.392 38.104 263.16 37.584L263.706 37.87V46.996C263.706 48.9547 264.512 49.934 266.124 49.934C266.609 49.934 267.121 49.7607 267.658 49.414C268.195 49.05 268.672 48.4867 269.088 47.724V41.224C269.088 40.5307 268.941 40.0627 268.646 39.82C268.369 39.56 267.866 39.4127 267.138 39.378L267.216 38.546C267.927 38.4247 269.166 38.104 270.934 37.584L271.48 37.87V49.284C271.913 49.6133 272.563 49.8647 273.43 50.038L273.326 51H269.608L269.322 49.232C268.317 50.5493 267.147 51.208 265.812 51.208C262.813 51.208 261.314 49.7 261.314 46.684Z" fill="black"/>
<path d="M62.808 295.75V287.3H60.52V286.52C62.3573 285.896 63.5533 284.761 64.108 283.114H65.226V285.844H68.398V287.3H65.2V295.958C65.2 296.651 65.278 297.145 65.434 297.44C65.59 297.735 65.9453 297.882 66.5 297.882C67.0547 297.882 67.6353 297.7 68.242 297.336L68.788 298.168C67.9213 298.861 66.916 299.208 65.772 299.208C64.628 299.208 63.848 298.948 63.432 298.428C63.016 297.891 62.808 296.998 62.808 295.75Z" fill="black"/>
<circle cx="294.676" cy="220.676" r="3.67647" fill="black"/>
<circle cx="100.676" cy="206.676" r="3.67647" fill="black"/>
<path d="M247.938 59.5406L253.13 74.191L238.909 68.5692" stroke="black"/>
<path d="M194.919 313.719L182.585 304.259L197.573 301.229" stroke="black"/>
<path d="M80.981 307.631L85.392 292.727L93.5922 305.633" stroke="black"/>
<path d="M192.174 115.319L206.205 122.007L192.174 128.087" stroke="black"/>
</svg>
