<svg width="400" height="400" viewBox="0 0 400 400" fill="none" xmlns="http://www.w3.org/2000/svg">
<rect width="400" height="400" fill="white"/>
<path d="M143.5 28.5C299 42.5 284 158.5 294.5 221.5" stroke="#E0A528" stroke-width="3"/>
<path d="M121 369C97.5 338 65.5 306 101 205.5" stroke="#6812E0" stroke-width="3"/>
<circle cx="196" cy="235" r="98.5" stroke="#E01D94" stroke-width="3"/>
<circle cx="120.676" cy="367.676" r="3.67647" fill="black"/>
<circle cx="144.676" cy="28.6765" r="3.67647" fill="black"/>
<path d="M151.016 372.536L150.856 380.792C151.773 380.856 152.691 381.005 153.608 381.24L153.544 382.36C153.203 382.531 152.584 382.723 151.688 382.936C150.813 383.128 149.949 383.224 149.096 383.224C148.712 382.456 148.499 381.72 148.456 381.016C146.024 382.616 144.317 383.416 143.336 383.416C141.821 383.416 140.605 383.011 139.688 382.2C138.771 381.389 138.312 380.259 138.312 378.808C138.312 375.459 140.36 373.731 144.456 373.624C146.845 373.56 148.051 373.528 148.072 373.528L148.04 372.44C147.997 370.968 147.72 369.912 147.208 369.272C146.696 368.611 145.779 368.28 144.456 368.28C143.901 368.28 143.304 368.408 142.664 368.664L141.896 371.864C141.789 371.885 141.608 371.896 141.352 371.896L140.04 371.8C139.699 370.883 139.517 369.613 139.496 367.992C139.901 367.779 140.829 367.459 142.28 367.032C143.731 366.584 144.659 366.36 145.064 366.36C147.24 366.36 148.776 366.84 149.672 367.8C150.568 368.76 151.016 370.339 151.016 372.536ZM144.04 381.24C144.659 381.24 146.088 380.547 148.328 379.16L148.168 375.16C146.717 375.288 145.501 375.405 144.52 375.512C143.539 375.619 142.749 375.907 142.152 376.376C141.555 376.824 141.256 377.539 141.256 378.52C141.256 380.333 142.184 381.24 144.04 381.24Z" fill="black"/>
<path d="M141.56 51.76C140.173 51.76 138.648 52.208 136.984 53.104C136.941 55.0667 136.899 56.8907 136.856 58.576C136.835 60.24 136.813 61.4027 136.792 62.064C137.325 62.5973 138.04 63.088 138.936 63.536C139.832 63.984 140.611 64.208 141.272 64.208C143.789 64.208 145.048 62.1387 145.048 58C145.048 56.4213 144.867 55.184 144.504 54.288C144.141 53.3707 143.725 52.72 143.256 52.336C142.787 51.952 142.221 51.76 141.56 51.76ZM136.088 42.224C136.749 42.224 137.219 42.2453 137.496 42.288C137.496 42.928 137.357 43.7813 137.08 44.848C137.08 45.3387 137.069 46.032 137.048 46.928C137.005 48.6773 136.984 50.16 136.984 51.376C139.629 50.032 141.347 49.36 142.136 49.36C144.12 49.36 145.592 50.1387 146.552 51.696C147.512 53.232 147.992 55.2373 147.992 57.712C147.992 60.1653 147.448 62.224 146.36 63.888C145.293 65.552 143.736 66.384 141.688 66.384C140.856 66.384 139.939 66.1493 138.936 65.68C137.955 65.2107 137.112 64.656 136.408 64.016C136.323 64.8053 136.152 65.5307 135.896 66.192C135.811 66.2133 135.651 66.224 135.416 66.224C135.181 66.224 134.84 66.192 134.392 66.128L134.04 44.784C132.973 44.72 132.035 44.5813 131.224 44.368L131.352 42.704C132.44 42.384 134.019 42.224 136.088 42.224Z" fill="black"/>
<path d="M234.646 326.646L243 316" stroke="#E01D94" stroke-width="3"/>
<line x1="83.6154" y1="326.423" x2="88.6154" y2="314.423" stroke="#6812E0" stroke-width="3"/>
<line x1="98.9966" y1="322.115" x2="88.9966" y2="313.115" stroke="#6812E0" stroke-width="3"/>
<line x1="266.282" y1="94.3168" x2="255.282" y2="88.3168" stroke="#E0A528" stroke-width="3"/>
<line x1="265.5" y1="93" x2="265.5" y2="80" stroke="#E0A528" stroke-width="3"/>
<line x1="235" y1="325.5" x2="248" y2="325.5" stroke="#E01D94" stroke-width="3"/>
</svg>
