<svg width="400" height="400" viewBox="0 0 400 400" fill="none" xmlns="http://www.w3.org/2000/svg">
<rect width="400" height="400" fill="white"/>
<path d="M143.5 28.5C299 42.5 284 158.5 294.5 221.5" stroke="#E0A528" stroke-width="3"/>
<path d="M121 369C97.5 338 65.5 306 101 205.5" stroke="#6812E0" stroke-width="3"/>
<circle cx="120.676" cy="367.676" r="3.67647" fill="black"/>
<circle cx="144.676" cy="28.6765" r="3.67647" fill="black"/>
<path d="M151.016 372.536L150.856 380.792C151.773 380.856 152.691 381.005 153.608 381.24L153.544 382.36C153.203 382.531 152.584 382.723 151.688 382.936C150.813 383.128 149.949 383.224 149.096 383.224C148.712 382.456 148.499 381.72 148.456 381.016C146.024 382.616 144.317 383.416 143.336 383.416C141.821 383.416 140.605 383.011 139.688 382.2C138.771 381.389 138.312 380.259 138.312 378.808C138.312 375.459 140.36 373.731 144.456 373.624C146.845 373.56 148.051 373.528 148.072 373.528L148.04 372.44C147.997 370.968 147.72 369.912 147.208 369.272C146.696 368.611 145.779 368.28 144.456 368.28C143.901 368.28 143.304 368.408 142.664 368.664L141.896 371.864C141.789 371.885 141.608 371.896 141.352 371.896L140.04 371.8C139.699 370.883 139.517 369.613 139.496 367.992C139.901 367.779 140.829 367.459 142.28 367.032C143.731 366.584 144.659 366.36 145.064 366.36C147.24 366.36 148.776 366.84 149.672 367.8C150.568 368.76 151.016 370.339 151.016 372.536ZM144.04 381.24C144.659 381.24 146.088 380.547 148.328 379.16L148.168 375.16C146.717 375.288 145.501 375.405 144.52 375.512C143.539 375.619 142.749 375.907 142.152 376.376C141.555 376.824 141.256 377.539 141.256 378.52C141.256 380.333 142.184 381.24 144.04 381.24Z" fill="black"/>
<path d="M141.56 51.76C140.173 51.76 138.648 52.208 136.984 53.104C136.941 55.0667 136.899 56.8907 136.856 58.576C136.835 60.24 136.813 61.4027 136.792 62.064C137.325 62.5973 138.04 63.088 138.936 63.536C139.832 63.984 140.611 64.208 141.272 64.208C143.789 64.208 145.048 62.1387 145.048 58C145.048 56.4213 144.867 55.184 144.504 54.288C144.141 53.3707 143.725 52.72 143.256 52.336C142.787 51.952 142.221 51.76 141.56 51.76ZM136.088 42.224C136.749 42.224 137.219 42.2453 137.496 42.288C137.496 42.928 137.357 43.7813 137.08 44.848C137.08 45.3387 137.069 46.032 137.048 46.928C137.005 48.6773 136.984 50.16 136.984 51.376C139.629 50.032 141.347 49.36 142.136 49.36C144.12 49.36 145.592 50.1387 146.552 51.696C147.512 53.232 147.992 55.2373 147.992 57.712C147.992 60.1653 147.448 62.224 146.36 63.888C145.293 65.552 143.736 66.384 141.688 66.384C140.856 66.384 139.939 66.1493 138.936 65.68C137.955 65.2107 137.112 64.656 136.408 64.016C136.323 64.8053 136.152 65.5307 135.896 66.192C135.811 66.2133 135.651 66.224 135.416 66.224C135.181 66.224 134.84 66.192 134.392 66.128L134.04 44.784C132.973 44.72 132.035 44.5813 131.224 44.368L131.352 42.704C132.44 42.384 134.019 42.224 136.088 42.224Z" fill="black"/>
<path d="M239.646 315.646L248.5 306.5" stroke="#E01D94" stroke-width="3"/>
<line x1="83.6154" y1="326.423" x2="88.6154" y2="314.423" stroke="#6812E0" stroke-width="3"/>
<line x1="98.9966" y1="322.115" x2="88.9966" y2="313.115" stroke="#6812E0" stroke-width="3"/>
<line x1="266.282" y1="94.3168" x2="255.282" y2="88.3168" stroke="#E0A528" stroke-width="3"/>
<line x1="265.5" y1="93" x2="265.5" y2="80" stroke="#E0A528" stroke-width="3"/>
<path d="M239 315.5L250.5 320" stroke="#E01D94" stroke-width="3"/>
<path d="M100 208C110.667 177.5 142 122 199.5 122C238.759 122 285.5 142.5 294.5 221.5" stroke="#36E028" stroke-width="3"/>
<path d="M294.5 221C297.5 259 286.2 330.6 217 313C130.5 291 72 279 100.5 206.5" stroke="#E01D94" stroke-width="3"/>
<path d="M196.976 143.048C196.869 142.941 196.635 142.888 196.272 142.888C195.909 142.888 195.365 143.016 194.64 143.272C193.936 143.528 193.296 143.827 192.72 144.168C192.592 148.904 192.507 152.456 192.464 154.824L195.152 155.08C195.152 155.677 194.971 156.317 194.608 157H187.248L187.152 155.88C188.133 155.539 189.093 155.283 190.032 155.112C189.904 149.693 189.797 145.683 189.712 143.08C188.539 143.016 187.6 142.888 186.896 142.696L187.024 141.032C188.155 140.712 189.829 140.552 192.048 140.552C192.389 141.085 192.603 141.768 192.688 142.6C195.141 141.107 196.603 140.36 197.072 140.36C197.541 140.36 198.085 140.456 198.704 140.648C199.323 140.819 199.781 141.011 200.08 141.224C200.08 143.357 199.877 145.096 199.472 146.44C199.173 146.525 198.821 146.568 198.416 146.568C198.032 146.568 197.765 146.557 197.616 146.536L196.976 143.048Z" fill="#36E028"/>
<path d="M205.808 290.952C206.555 291.272 207.461 291.432 208.528 291.432C209.616 291.432 210.469 291.229 211.088 290.824C211.707 290.419 212.016 289.864 212.016 289.16C212.016 288.456 211.728 287.869 211.152 287.4C210.576 286.931 209.872 286.515 209.04 286.152C208.208 285.789 207.376 285.405 206.544 285C205.712 284.595 205.008 284.061 204.432 283.4C203.856 282.739 203.568 281.971 203.568 281.096C203.568 279.624 204.059 278.472 205.04 277.64C206.021 276.787 207.376 276.36 209.104 276.36C210.853 276.36 212.496 276.755 214.032 277.544C214.053 277.757 214.064 278.333 214.064 279.272C214.064 280.189 213.968 280.979 213.776 281.64C213.264 281.811 212.656 281.896 211.952 281.896L210.896 278.632C210.427 278.397 209.787 278.28 208.976 278.28C208.187 278.28 207.557 278.493 207.088 278.92C206.619 279.325 206.384 279.848 206.384 280.488C206.384 281.107 206.672 281.651 207.248 282.12C207.845 282.589 208.56 283.016 209.392 283.4C210.224 283.763 211.056 284.157 211.888 284.584C212.72 284.989 213.424 285.533 214 286.216C214.597 286.877 214.896 287.645 214.896 288.52C214.896 290.056 214.299 291.261 213.104 292.136C211.931 292.989 210.48 293.416 208.752 293.416C207.813 293.416 206.811 293.267 205.744 292.968C204.677 292.648 203.781 292.243 203.056 291.752C203.056 290.323 203.184 289.053 203.44 287.944C203.931 287.859 204.592 287.816 205.424 287.816L205.808 290.952Z" fill="#E01D94"/>
<path d="M262.52 58.016L262.264 45.952H259.8L259.704 44.832C259.917 44.6827 260.536 44.4053 261.56 44L264.184 39.904C264.611 39.9467 264.941 40.0533 265.176 40.224L265.144 43.744C266.744 43.744 268.056 43.8507 269.08 44.064C269.08 44.64 268.899 45.2693 268.536 45.952H265.08C265.037 48.512 264.995 52.3947 264.952 57.6C266.147 57.664 267.341 57.8773 268.536 58.24L268.504 59.36C268.205 59.552 267.437 59.776 266.2 60.032C264.984 60.288 263.981 60.416 263.192 60.416C263.085 60.2453 262.947 59.8827 262.776 59.328C262.605 58.752 262.52 58.3147 262.52 58.016Z" fill="#E0A528"/>
<path d="M60.408 280.888C61.0267 280.888 61.72 280.76 62.488 280.504C63.256 280.227 63.8853 279.896 64.376 279.512C64.2907 274.968 64.216 271.523 64.152 269.176C62.8293 269.176 61.848 269.048 61.208 268.792L61.336 267.128C63.1493 266.808 64.568 266.648 65.592 266.648C66.6373 266.648 67.2987 266.669 67.576 266.712C67.576 267.096 67.512 267.608 67.384 268.248C67.2773 268.888 67.2027 269.24 67.16 269.304L66.776 280.728C67.9067 280.792 68.824 280.92 69.528 281.112L69.464 282.744C68.5253 283.043 67.6187 283.192 66.744 283.192C65.8693 283.192 65.336 283.181 65.144 283.16C64.7387 282.349 64.504 281.603 64.44 280.92C63.3947 281.709 62.424 282.317 61.528 282.744C60.6533 283.171 60.0773 283.384 59.8 283.384C57.9227 283.384 56.5573 282.883 55.704 281.88C54.872 280.856 54.456 279.363 54.456 277.4C54.456 277.379 54.552 274.648 54.744 269.208C53.5067 269.208 52.3653 269.069 51.32 268.792L51.448 267.128C53.2613 266.808 54.6693 266.648 55.672 266.648C56.6747 266.648 57.3147 266.669 57.592 266.712C57.592 267.224 57.528 267.789 57.4 268.408C57.272 269.027 57.1973 269.325 57.176 269.304L57.208 276.216C57.208 277.837 57.4107 279.021 57.816 279.768C58.2213 280.515 59.0853 280.888 60.408 280.888Z" fill="#6812E0"/>
</svg>
